<svg width="256" height="277" viewBox="0 0 256 277" fill="none" xmlns="http://www.w3.org/2000/svg">
<path d="M2.75 56.75L44.5 2.25H211.5L253.25 56.75M2.75 56.75V247.5C2.75 254.727 5.68243 261.658 10.9022 266.769C16.122 271.879 23.2015 274.75 30.5833 274.75H225.417C232.799 274.75 239.878 271.879 245.098 266.769C250.318 261.658 253.25 254.727 253.25 247.5V56.75M2.75 56.75H253.25M183.667 111.25C183.667 125.704 177.802 139.567 167.362 149.787C156.923 160.008 142.764 165.75 128 165.75C113.236 165.75 99.0772 160.008 88.6377 149.787C78.1982 139.567 72.3333 125.704 72.3333 111.25" stroke="#1E1E1E" stroke-width="4" stroke-linecap="round" stroke-linejoin="round"/>
</svg>
